<?xml version="1.0" encoding="UTF-8" standalone="no"?>
<svg width="329px" height="183px" viewBox="0 0 329 183" version="1.1" xmlns="http://www.w3.org/2000/svg" xmlns:xlink="http://www.w3.org/1999/xlink">
    <!-- Generator: Sketch 3.7.1 (28215) - http://www.bohemiancoding.com/sketch -->
    <title>Path 13</title>
    <desc>Created with Sketch.</desc>
    <defs></defs>
    <g id="Page-1" stroke="none" stroke-width="1" fill="none" fill-rule="evenodd">
        <path d="M0.6640625,71.3242187 C80.6426141,112.293301 162.281584,145.589805 246.265625,177.277344 C248.868727,178.259505 255.081562,183.708606 253.519531,181.40625 C238.206579,158.835716 221.193721,137.461582 204.578125,115.832031 C172.66955,74.2946611 172.423433,115.370022 131.40625,167.203125 C131.199403,167.464516 131.072917,168.203125 131.40625,168.203125 C148.133386,168.203125 156.94221,139.393174 174.746094,135.242187 C176.123967,134.920936 177.950908,135.167481 178.871094,136.242187 C180.300343,137.911442 180.821266,140.302756 180.957031,142.496094 C181.522226,151.627056 181.731508,160.82581 180.957031,169.941406 C180.679214,173.211315 175.826007,176.680162 177.832031,179.277344 C179.938074,182.004019 184.722656,179.277344 188.167969,179.277344 C189.876302,179.277344 183.583647,180.897859 183.042969,179.277344 L180.957031,174.066406 C180.156784,171.667912 179.176717,169.283371 178.871094,166.773437 C178.129722,160.684923 173.024629,152.211349 177.832031,148.402344 C195.718776,134.230305 194.982123,158.398618 204.539062,156.222656 C210.540589,154.856205 216.138368,151.708637 222.253906,151.011719 C231.531101,149.954502 240.936572,151.40263 250.265625,151.011719 C254.758634,150.82345 259.564124,151.167542 263.644531,149.277344 C264.891595,148.699657 263.421159,146.411248 262.644531,145.277344 C258.167799,138.741158 252.623317,132.98791 248.054688,126.515625 C244.275263,121.161391 240.717074,115.626415 237.632812,109.84375 C236.063934,106.902269 234.427302,103.787843 234.160156,100.464844 C233.602693,93.5306066 233.838658,86.4425775 235.203125,79.6210937 C235.964932,75.8125333 238.276657,72.442208 240.414062,69.1992187 C241.675688,67.2850112 243.388183,65.6347686 245.277344,64.3359375 C252.690767,59.2390786 260.094635,53.9910837 268.203125,50.09375 C275.134395,46.7622453 282.673374,44.8309362 290.089844,42.796875 C292.432389,42.1544021 296.403788,44.3413754 297.34375,42.1015625 C299.483656,37.0024326 296.454113,30.9696368 297.34375,25.5117187 C298.672649,17.358937 301.557317,9.5338521 303.941406,1.625 C304.133818,0.986703674 304.607974,3.6135191 303.941406,3.625 C298.769142,3.71408662 283.387605,2.54146055 288.519531,1.890625 C298.14168,0.670335414 307.976459,0.8270428 317.617188,1.890625 C320.68598,2.22917962 324.518422,3.25968931 325.910156,6.015625 C332.215114,18.5008067 318.660156,34.8415967 318.660156,47.8476562" id="Path-13" stroke="#000000"></path>
    </g>
</svg>